<svg xmlns="http://www.w3.org/2000/svg" width="960" height="240" viewBox="0 0 960 240" role="img" aria-labelledby="title desc">
  <title id="title">FluxToken OpenAI-compatible Gateway</title>
  <desc id="desc">A banner recommending FluxToken as an optional OpenAI-compatible multi-model gateway.</desc>
  <defs>
    <linearGradient id="bg" x1="0" y1="0" x2="960" y2="240" gradientUnits="userSpaceOnUse">
      <stop offset="0" stop-color="#071018"/>
      <stop offset="0.45" stop-color="#0c1823"/>
      <stop offset="1" stop-color="#14100a"/>
    </linearGradient>
    <linearGradient id="line" x1="126" y1="46" x2="820" y2="206" gradientUnits="userSpaceOnUse">
      <stop offset="0" stop-color="#2de6ef"/>
      <stop offset="0.48" stop-color="#fff0a8"/>
      <stop offset="1" stop-color="#ff5c7a"/>
    </linearGradient>
    <filter id="glow" x="-30%" y="-30%" width="160%" height="160%">
      <feGaussianBlur stdDeviation="8" result="blur"/>
      <feMerge>
        <feMergeNode in="blur"/>
        <feMergeNode in="SourceGraphic"/>
      </feMerge>
    </filter>
  </defs>
  <rect width="960" height="240" rx="28" fill="url(#bg)"/>
  <path d="M74 182C178 56 286 50 398 132s214 72 326-28c54-48 105-61 163-38" fill="none" stroke="url(#line)" stroke-width="4" opacity="0.65" filter="url(#glow)"/>
  <g transform="translate(72 55)">
    <rect x="0" y="0" width="126" height="126" rx="30" fill="#08131a" stroke="#2de6ef" stroke-width="3"/>
    <path d="M34 36h58M34 62h34M78 62h14M34 88h58" stroke="#f6cf65" stroke-linecap="round" stroke-width="9"/>
    <circle cx="63" cy="63" r="48" fill="none" stroke="#2de6ef" stroke-width="2" opacity="0.45"/>
  </g>
  <text x="236" y="84" font-family="Arial, sans-serif" font-size="42" font-weight="800" fill="#f8fafc">FluxToken</text>
  <text x="236" y="126" font-family="Arial, sans-serif" font-size="24" fill="#bdeff5">OpenAI-compatible multi-model gateway</text>
  <text x="236" y="163" font-family="Arial, sans-serif" font-size="19" fill="#f5d982">Claude / GPT / DeepSeek · unified API key · usage logs · routing</text>
  <text x="236" y="196" font-family="Arial, sans-serif" font-size="18" fill="#8bdbe3">https://fluxtoken.ai/v1</text>
  <rect x="754" y="78" width="134" height="84" rx="20" fill="#11212b" stroke="#f6cf65" stroke-width="2"/>
  <text x="821" y="114" text-anchor="middle" font-family="Arial, sans-serif" font-size="18" font-weight="700" fill="#fff0a8">OPTIONAL</text>
  <text x="821" y="142" text-anchor="middle" font-family="Arial, sans-serif" font-size="18" fill="#37f5ff">GATEWAY</text>
</svg>

